# xmcd CD database file
#
# Track frame offsets:
#	150
#	20318
#	38582
#	58304
#	75224
#	94417
#	102893
#	120889
#	136457
#	150771
#	185443
#	205016
#
# Disc length: 2867 seconds
#
# Revision: 0
# Processed by: cddbd v1.5.1PL0 Copyright (c) Steve Scherf et al.
# Submitted via: CDex 1.51
#
DISCID=860b310c
DTITLE=Janis Joplin - The Very Best Of
DYEAR=1983
DGENRE=Blues
TTITLE0=Me And Bobby McGee
TTITLE1=Cry Baby
TTITLE2=Cosmic Blues
TTITLE3=Move Over
TTITLE4=Piece Of My Heart
TTITLE5=Mercedes Benz
TTITLE6=Try Just A Little Bit Harder
TTITLE7=Get It While You Can
TTITLE8=Down On Me
TTITLE9=Ball And Chain
TTITLE10=Summertime
TTITLE11=Mary Jane
EXTD=YEAR: 1983
EXTT0=
EXTT1=
EXTT2=
EXTT3=
EXTT4=
EXTT5=
EXTT6=
EXTT7=
EXTT8=
EXTT9=
EXTT10=
EXTT11=
PLAYORDER=
